HIERARCHY
ROOT root
{
	OFFSET 0.0000 0.0000 0.0000
	CHANNELS 6 Xposition Yposition Zposition Zrotation Xrotation Yrotation
	JOINT lowerback
	{
		OFFSET 0.0000 0.0000 0.0000
		CHANNELS 3 Zrotation Xrotation Yrotation
		JOINT upperback
		{
			OFFSET -0.2975 11.0962 -0.4289
			CHANNELS 3 Zrotation Xrotation Yrotation
			JOINT thorax
			{
				OFFSET -0.0009 11.0405 -0.3169
				CHANNELS 3 Zrotation Xrotation Yrotation
				JOINT neck
				{
					OFFSET 0.1944 11.1642 0.0841
					CHANNELS 3 Zrotation Xrotation Yrotation
					JOINT head
					{
						OFFSET 1.6277 15.5530 -0.6089
						CHANNELS 3 Zrotation Xrotation Yrotation
						End Site
						{
							OFFSET -0.0000 0.0000 0.0000
						}
					}
				}
			}
			JOINT lshoulderjoint
			{
				OFFSET -0.0009 11.0405 -0.3169
				CHANNELS 3 Zrotation Xrotation Yrotation
				JOINT lhumerus
				{
					OFFSET 14.1669 18.7170 0.1105
					CHANNELS 3 Zrotation Xrotation Yrotation
					JOINT lradius
					{
						OFFSET 29.5186 0.0000 0.0000
						CHANNELS 3 Zrotation Xrotation Yrotation
						JOINT lhand
						{
							OFFSET 23.9354 0.0000 0.0000
							CHANNELS 3 Zrotation Xrotation Yrotation
							End Site
							{
								OFFSET 0.0000 -0.0000 0.0000
							}
						}
					}
				}
			}
			JOINT rshoulderjoint
			{
				OFFSET -0.0009 11.0405 -0.3169
				CHANNELS 3 Zrotation Xrotation Yrotation
				JOINT rhumerus
				{
					OFFSET -14.2042 18.2168 -0.2511
					CHANNELS 3 Zrotation Xrotation Yrotation
					JOINT rradius
					{
						OFFSET -29.7619 0.0000 0.0000
						CHANNELS 3 Zrotation Xrotation Yrotation
						JOINT rhand
						{
							OFFSET -25.1658 0.0000 0.0000
							CHANNELS 3 Zrotation Xrotation Yrotation
							End Site
							{
								OFFSET 0.0000 0.0000 0.0000
							}
						}
					}
				}
			}
		}
	}
	JOINT rfemur
	{
		OFFSET -7.7032 -9.8555 2.1513
		CHANNELS 3 Zrotation Xrotation Yrotation
		JOINT rtibia
		{
			OFFSET -7.1353 -40.4666 0.0000
			CHANNELS 3 Zrotation Xrotation Yrotation
			JOINT rfoot
			{
				OFFSET -6.6645 -37.7961 0.0000
				CHANNELS 3 Zrotation Xrotation Yrotation
				JOINT rtoes
				{
					OFFSET -3.4134 -6.6508 11.8768
					CHANNELS 3 Zrotation Xrotation Yrotation
					End Site
					{
						OFFSET 0.0000 0.0000 0.0000
					}
				}
			}
		}
	}
	JOINT lfemur
	{
		OFFSET 8.5590 -9.8555 2.1513
		CHANNELS 3 Zrotation Xrotation Yrotation
		JOINT ltibia
		{
			OFFSET 7.2751 -41.2593 0.0000
			CHANNELS 3 Zrotation Xrotation Yrotation
			JOINT lfoot
			{
				OFFSET 6.5686 -37.2525 -0.0000
				CHANNELS 3 Zrotation Xrotation Yrotation
				JOINT ltoes
				{
					OFFSET 3.2326 -4.1860 10.4122
					CHANNELS 3 Zrotation Xrotation Yrotation
					End Site
					{
						OFFSET -0.0000 -0.0000 0.0000
					}
				}
			}
		}
	}
}
MOTION
Frames: 10
Frame Time: 0.008333
-83.7352 95.2939 -106.6348 -4.2900 5.3400 35.6800 -1.5900 -15.3800 1.1900 -0.3600 -2.1800 1.8800 2.0600 13.1700 0.7000 -5.1500 5.5100 -10.2300 10.0400 3.8800 -10.7900 -84.1500 -1.2700 -167.0600 -3.7700 -9.0300 -145.1700 0.0000 -0.0000 -48.0300 18.7900 38.6400 14.2600 90.8900 2.4400 166.6000 15.5200 -8.3300 175.8000 -0.0000 -0.0000 74.9700 -17.7000 35.8200 -15.1100 4.6500 5.6000 -18.3100 0.8700 22.9500 -4.2800 -1.4500 5.6800 20.5300 0.0000 0.3600 -0.0600 -5.5800 -39.4100 10.5200 -2.1200 34.1800 6.8800 0.0000 0.0000 0.0000 0.0000 0.0000 0.0000 
-82.8939 95.3740 -105.8763 -3.7800 5.2900 35.6700 -2.0600 -15.2300 1.0300 -0.5500 -2.0200 1.7600 2.2800 13.1600 0.6100 -5.1500 5.4800 -10.1200 10.0500 4.0400 -10.6900 -84.2100 -1.2500 -167.0700 -3.7600 -9.3600 -145.5100 0.0000 -0.0000 -48.0700 19.4900 38.6100 14.1200 91.0500 2.3700 166.6000 15.1000 -8.4100 175.1700 -0.0000 -0.0000 74.4100 -17.8400 36.8700 -15.2900 3.7700 5.0000 -17.4400 1.1000 25.5900 -4.8400 -1.7200 6.5100 19.5600 0.0000 0.4200 -0.0700 -6.3800 -38.6700 9.7400 -2.2100 34.8300 7.0500 0.0000 0.0000 0.0000 0.0000 0.0000 0.0000 
-82.1695 95.3686 -105.0839 -3.7700 5.6100 34.9000 -2.3700 -15.5800 1.0800 -0.6400 -2.1900 1.8900 2.5700 13.3100 0.6300 -5.1800 5.5800 -9.9800 10.0100 4.1100 -10.5700 -83.9600 -1.4400 -166.9500 -3.5800 -10.0200 -145.8400 0.0000 -0.0000 -48.1200 19.4900 38.1500 14.3700 91.4100 2.5400 166.4300 14.7800 -8.4900 174.6000 -0.0000 -0.0000 73.8200 -17.7200 37.6100 -15.4500 3.1600 3.3900 -15.3300 1.4100 28.6100 -5.5200 -2.0900 7.8400 18.2500 0.0000 0.3800 -0.0700 -6.0600 -38.5400 10.5700 -2.3100 35.4700 7.2200 0.0000 0.0000 0.0000 0.0000 0.0000 0.0000 
-81.4438 95.3704 -104.3041 -3.7400 5.8600 34.2400 -2.5400 -15.7500 1.1500 -0.7600 -2.3300 2.0300 2.6900 13.3200 0.6800 -5.1700 5.5900 -9.8700 10.0000 4.3600 -10.4700 -83.7900 -1.4600 -166.9300 -3.4300 -10.3900 -146.1900 0.0000 -0.0000 -48.1900 19.5900 38.3600 14.0100 91.5200 2.5800 166.4200 14.2100 -8.5400 173.9800 -0.0000 -0.0000 73.2800 -17.2000 37.8600 -15.4300 2.7000 1.6000 -13.3500 1.7900 31.8400 -6.2900 -2.5100 9.5400 16.8700 0.0000 0.3300 -0.0600 -5.8500 -38.3000 11.1700 -2.3900 36.0000 7.3600 0.0000 0.0000 0.0000 0.0000 0.0000 0.0000 
-80.6709 95.4255 -103.5675 -3.4300 5.8700 34.0700 -2.7400 -15.6100 1.1200 -0.9700 -2.2700 2.0500 2.6800 13.2400 0.6900 -5.0500 5.6300 -9.8100 10.1900 4.4000 -10.4100 -83.8700 -1.2800 -166.9800 -3.3900 -11.0200 -146.6800 0.0000 -0.0000 -48.3100 19.3000 37.9400 14.4400 91.5300 2.3700 166.5300 13.6600 -8.4700 173.3400 -0.0000 -0.0000 72.7500 -16.5900 38.4900 -15.8900 2.0400 -0.0200 -12.2200 2.2900 35.3100 -7.1700 -2.9800 11.4900 15.8300 0.0000 0.3100 -0.0500 -6.2200 -37.7100 10.9100 -2.4800 36.5200 7.5000 0.0000 0.0000 0.0000 0.0000 0.0000 0.0000 
-79.9290 95.5015 -102.8484 -3.1400 5.9400 34.0000 -3.0700 -15.5100 1.0700 -1.2000 -2.1700 2.0600 2.7800 13.2300 0.6700 -4.8000 5.3200 -9.8100 10.0000 4.6600 -10.4100 -83.7700 -1.0300 -166.9500 -3.3500 -11.6100 -147.4300 0.0000 -0.0000 -48.4100 18.8300 37.4100 15.0700 91.6500 2.1100 166.5900 13.3100 -8.6600 172.7400 -0.0000 -0.0000 72.2600 -17.2900 39.7200 -17.0200 1.4500 -1.8300 -11.0700 2.8900 38.9000 -8.1800 -3.4300 13.7300 14.6200 0.0000 0.3000 -0.0500 -6.6200 -37.1300 10.8500 -2.5500 36.9300 7.6200 0.0000 0.0000 0.0000 0.0000 0.0000 0.0000 
-79.1835 95.5779 -102.1839 -2.8800 5.9500 33.9900 -3.2700 -15.3300 0.9700 -1.3600 -2.0400 1.9800 2.7800 13.1900 0.6200 -4.7100 5.0100 -9.7400 10.0400 4.7600 -10.3400 -83.8900 -0.9400 -166.9800 -3.4200 -12.1600 -148.2100 0.0000 -0.0000 -48.5700 18.6600 37.6000 15.2600 91.6600 1.9900 166.6400 12.8300 -8.4800 172.0400 -0.0000 -0.0000 71.8500 -17.7400 40.6300 -17.9600 0.9400 -3.7300 -10.0600 3.6200 42.4700 -9.2900 -3.8900 16.3900 13.3300 0.0000 0.2700 -0.0500 -7.1300 -36.4200 10.5700 -2.5900 37.1900 7.6900 0.0000 0.0000 0.0000 0.0000 0.0000 0.0000 
-78.4230 95.6523 -101.5190 -2.5600 5.9100 33.9500 -3.4000 -15.0900 0.9200 -1.5600 -1.8900 1.9400 2.7000 13.0800 0.6000 -4.6100 4.7700 -9.6000 10.1800 4.9200 -10.2100 -83.8100 -0.8000 -167.0700 -3.2200 -13.1300 -149.0100 0.0000 -0.0000 -48.7300 18.9200 37.9800 15.1400 91.6500 1.8600 166.7600 12.4300 -8.3300 171.2200 -0.0000 -0.0000 71.4700 -15.9200 40.2500 -18.7800 0.3700 -5.6700 -9.2800 4.4600 45.9500 -10.5000 -4.4400 19.5900 12.2200 0.0000 0.1000 -0.0200 -7.4700 -35.6100 10.7600 -2.6200 37.3500 7.7300 0.0000 0.0000 0.0000 0.0000 0.0000 0.0000 
-77.6930 95.6920 -100.8614 -2.2500 6.0100 33.8200 -3.5800 -14.8700 0.8500 -1.7700 -1.8100 1.8900 2.6300 12.9600 0.5800 -4.5400 4.5700 -9.5200 10.1200 5.0400 -10.1200 -83.7900 -0.7800 -167.2000 -3.2200 -13.8400 -149.8400 0.0000 -0.0000 -48.8900 19.2700 38.2800 14.9600 91.6000 1.8400 166.8800 12.0000 -8.5800 170.4500 -0.0000 -0.0000 71.1000 -14.9000 39.6900 -19.3500 -0.3100 -7.8400 -8.6000 5.4600 49.3400 -11.8500 -5.0200 23.1200 11.2600 0.0000 -0.1900 0.0300 -7.7000 -34.9200 11.3100 -2.6300 37.4200 7.7500 0.0000 0.0000 0.0000 0.0000 0.0000 0.0000 
-76.9963 95.7222 -100.1908 -2.0000 6.3000 33.7200 -3.9100 -14.9700 0.7700 -2.0300 -1.8000 1.8800 2.7100 13.0600 0.5500 -4.3900 4.3500 -9.4900 9.8700 5.1200 -10.0800 -83.7300 -0.6600 -167.0900 -3.4900 -14.3500 -150.8200 0.0000 -0.0000 -49.1100 18.9400 37.8900 14.8100 91.7200 1.7200 166.7900 11.5700 -8.7500 169.7900 -0.0000 -0.0000 70.7200 -15.3300 39.2500 -19.5500 -0.9100 -10.2300 -7.8100 6.6200 52.6300 -13.3500 -5.4300 26.6200 10.1400 0.0000 -0.6000 0.1100 -8.2400 -34.3400 11.3100 -2.6200 37.3900 7.7400 0.0000 0.0000 0.0000 0.0000 0.0000 0.0000 
